<svg xmlns="http://www.w3.org/2000/svg" viewBox="0 0 100 100" width="100" height="100">
  <rect width="100" height="100" rx="8" fill="#1B2E4B"/>
  <g fill="#F0EFEB"><path d="M18.64 58L14.10 53.46L14.10 49.26L19.73 49.26L19.73 51.74L21.11 53.13L29.81 53.13L31.24 51.70L31.24 46.83L29.85 45.44L18.72 45.44L14.18 40.91L14.18 33.14L18.72 28.60L31.99 28.60L36.53 33.14L36.53 37.38L30.90 37.38L30.90 34.86L29.51 33.47L21.20 33.47L19.81 34.86L19.81 39.18L21.20 40.57L32.33 40.57L36.86 45.11L36.86 53.38L32.24 58L18.64 58ZM47.11 58L47.11 33.43L38.33 33.43L38.33 28.60L61.60 28.60L61.60 33.43L52.82 33.43L52.82 58L47.11 58ZM85.58 56.28L89.57 60.35L86.05 63.88L80.12 58L68.74 58L63.91 53.17L63.91 33.43L68.74 28.60L83.86 28.60L88.69 33.43L88.69 53.17L85.58 56.28ZM71.77 53.13L80.84 53.13L82.98 50.99L82.98 35.61L80.84 33.47L71.77 33.47L69.62 35.61L69.62 50.99L71.77 53.13Z"/></g>
</svg>