<svg xmlns="http://www.w3.org/2000/svg" viewBox="0 0 64 64" width="64" height="64">
  <rect width="64" height="64" rx="8" fill="#1B2E4B"/>
  <g fill="#F0EFEB"><path d="M12.48 38L10.10 35.62L10.10 33.42L13.05 33.42L13.05 34.72L13.77 35.45L18.33 35.45L19.08 34.70L19.08 32.15L18.35 31.42L12.52 31.42L10.14 29.05L10.14 24.98L12.52 22.60L19.47 22.60L21.85 24.98L21.85 27.20L18.90 27.20L18.90 25.88L18.17 25.15L13.82 25.15L13.09 25.88L13.09 28.14L13.82 28.87L19.65 28.87L22.02 31.25L22.02 35.58L19.60 38L12.48 38ZM27.39 38L27.39 25.13L22.79 25.13L22.79 22.60L34.98 22.60L34.98 25.13L30.38 25.13L30.38 38L27.39 38ZM47.54 37.10L49.63 39.23L47.79 41.08L44.68 38L38.72 38L36.19 35.47L36.19 25.13L38.72 22.60L46.64 22.60L49.17 25.13L49.17 35.47L47.54 37.10ZM40.31 35.45L45.06 35.45L46.18 34.33L46.18 26.27L45.06 25.15L40.31 25.15L39.18 26.27L39.18 34.33L40.31 35.45Z"/></g>
</svg>