<svg xmlns="http://www.w3.org/2000/svg" viewBox="0 0 380 48" width="380" height="48">
  <g fill="#1B2E4B"><path d="M5.69 32L1.80 28.11L1.80 24.51L6.62 24.51L6.62 26.64L7.81 27.82L15.26 27.82L16.49 26.60L16.49 22.42L15.30 21.24L5.76 21.24L1.87 17.35L1.87 10.69L5.76 6.80L17.14 6.80L21.02 10.69L21.02 14.32L16.20 14.32L16.20 12.16L15.01 10.98L7.88 10.98L6.70 12.16L6.70 15.87L7.88 17.06L17.42 17.06L21.31 20.95L21.31 28.04L17.35 32L5.69 32ZM30.10 32L30.10 10.94L22.57 10.94L22.57 6.80L42.52 6.80L42.52 10.94L34.99 10.94L34.99 32L30.10 32ZM63.07 30.52L66.49 34.02L63.47 37.04L58.39 32L48.64 32L44.50 27.86L44.50 10.94L48.64 6.80L61.60 6.80L65.74 10.94L65.74 27.86L63.07 30.52ZM51.23 27.82L59.00 27.82L60.84 25.99L60.84 12.81L59.00 10.98L51.23 10.98L49.39 12.81L49.39 25.99L51.23 27.82Z"/></g>
  <g fill="#6B7280"><path d="M73.72 32L87.65 6.76L90.46 6.76L76.52 32L73.72 32ZM105.72 32L101.76 28.04L101.76 10.76L105.72 6.80L116.52 6.80L120.34 10.62L120.34 12.92L117.60 12.92L117.60 11.52L115.30 9.25L106.94 9.25L104.50 11.66L104.50 27.14L106.94 29.55L115.30 29.55L117.60 27.28L117.60 25.88L120.34 25.88L120.34 28.18L116.52 32L105.72 32ZM127.07 32L124.12 29.05L124.12 24.48L127.07 21.56L136.64 21.56L136.64 18.14L134.84 16.38L128.72 16.38L126.92 18.14L126.92 19.62L124.26 19.62L124.26 17.38L127.57 14.07L135.96 14.07L139.27 17.38L139.27 32L136.72 32L136.72 28.83L133.40 32L127.07 32ZM128.22 29.70L132.86 29.70L136.64 26.06L136.64 23.86L128.22 23.86L126.78 25.27L126.78 28.29L128.22 29.70ZM144.49 39.63L144.49 14.07L147.08 14.07L147.08 17.28L150.29 14.07L157.02 14.07L160.33 17.38L160.33 28.69L157.02 32L150.11 32L147.16 29.41L147.16 39.63L144.49 39.63ZM150.61 29.62L155.87 29.62L157.67 27.86L157.67 18.21L155.87 16.45L151.01 16.45L147.16 20.30L147.16 26.49L150.61 29.62ZM166.27 11.05L165.19 9.97L165.19 8.38L166.27 7.30L167.86 7.30L168.94 8.38L168.94 9.97L167.86 11.05L166.27 11.05ZM165.73 32L165.73 14.07L168.40 14.07L168.40 32L165.73 32ZM179.09 32L175.78 28.69L175.78 16.41L172.54 16.41L172.54 14.07L175.85 14.07L175.85 8.24L178.44 8.24L178.44 14.07L184.06 14.07L184.06 16.41L178.44 16.41L178.44 27.86L180.24 29.66L184.06 29.66L184.06 32L179.09 32ZM190.61 32L187.66 29.05L187.66 24.48L190.61 21.56L200.18 21.56L200.18 18.14L198.38 16.38L192.26 16.38L190.46 18.14L190.46 19.62L187.80 19.62L187.80 17.38L191.11 14.07L199.50 14.07L202.81 17.38L202.81 32L200.26 32L200.26 28.83L196.94 32L190.61 32ZM191.76 29.70L196.40 29.70L200.18 26.06L200.18 23.86L191.76 23.86L190.32 25.27L190.32 28.29L191.76 29.70ZM208.21 32L208.21 6.30L210.88 6.30L210.88 32L208.21 32ZM225.42 32L225.42 6.80L239.82 6.80L243.13 10.11L243.13 18.21L239.78 21.56L228.16 21.56L228.16 32L225.42 32ZM228.16 19.18L238.63 19.18L240.43 17.42L240.43 10.94L238.63 9.18L228.16 9.18L228.16 19.18ZM249.14 32L246.19 29.05L246.19 24.48L249.14 21.56L258.72 21.56L258.72 18.14L256.92 16.38L250.80 16.38L249 18.14L249 19.62L246.34 19.62L246.34 17.38L249.65 14.07L258.04 14.07L261.35 17.38L261.35 32L258.79 32L258.79 28.83L255.48 32L249.14 32ZM250.30 29.70L254.94 29.70L258.72 26.06L258.72 23.86L250.30 23.86L248.86 25.27L248.86 28.29L250.30 29.70ZM266.57 32L266.57 14.07L269.16 14.07L269.16 17.28L272.36 14.07L277.01 14.07L277.01 16.45L273.05 16.45L269.23 20.26L269.23 32L266.57 32ZM285.36 32L282.05 28.69L282.05 16.41L278.81 16.41L278.81 14.07L282.12 14.07L282.12 8.24L284.71 8.24L284.71 14.07L290.33 14.07L290.33 16.41L284.71 16.41L284.71 27.86L286.51 29.66L290.33 29.66L290.33 32L285.36 32ZM294.47 32L294.47 14.07L297.06 14.07L297.06 17.89L300.88 14.07L306.38 14.07L309.70 17.38L309.70 32L307.03 32L307.03 18.21L305.23 16.45L301.60 16.45L297.13 20.91L297.13 32L294.47 32ZM317.87 32L314.56 28.69L314.56 17.38L317.87 14.07L326.90 14.07L330.25 17.38L330.25 23.83L317.22 23.83L317.22 27.86L319.02 29.62L325.75 29.62L327.55 27.86L327.55 26.49L330.22 26.49L330.22 28.69L326.90 32L317.87 32ZM317.22 21.52L327.59 21.52L327.59 18.21L325.79 16.45L319.02 16.45L317.22 18.21L317.22 21.52ZM335.11 32L335.11 14.07L337.70 14.07L337.70 17.28L340.91 14.07L345.55 14.07L345.55 16.45L341.59 16.45L337.78 20.26L337.78 32L335.11 32ZM350.48 32L347.53 29.05L347.53 26.82L350.20 26.82L350.20 28.29L351.64 29.70L358.26 29.70L359.70 28.29L359.70 25.52L358.26 24.08L350.52 24.08L347.68 21.24L347.68 17.02L350.63 14.07L359.05 14.07L362.00 17.02L362.00 19.26L359.34 19.26L359.34 17.78L357.90 16.38L351.78 16.38L350.34 17.78L350.34 20.41L351.78 21.85L359.41 21.85L362.36 24.80L362.36 29.05L359.41 32L350.48 32Z"/></g>
</svg>